<svg height="512pt" viewBox="0 0 512 512.001" width="512pt" xmlns="http://www.w3.org/2000/svg"><path d="m451.703125 383.519531c-17.023437 11.894531-36.320313 25.378907-50.824219 56.0625l-.296875.621094c-11.628906 24.613281-29.203125 61.796875-83.070312 61.796875-35.8125 0-56.347657-28.488281-56.347657-78.167969v-142.492187c0-66.167969 53.828126-120 119.992188-120 34.921875 0 66.152344 12.128906 87.9375 34.144531 21.335938 21.550781 32.421875 51.238281 32.0625 85.847656-.714844 68.136719-23.300781 83.914063-49.453125 102.1875zm0 0" fill="#feda9b"/><path d="m10 49.078125v140.6875c0 21.585937 17.496094 39.082031 39.082031 39.082031h91.015625l72.789063 57.152344-14.328125-57.152344h71.320312c21.585938 0 39.082032-17.5 39.082032-39.082031v-140.6875c0-21.582031-17.496094-39.078125-39.082032-39.078125h-220.796875c-21.585937 0-39.082031 17.496094-39.082031 39.078125zm0 0" fill="#62cd4d"/><path d="m476.203125 188.449219c-23.683594-23.933594-57.4375-37.109375-95.046875-37.109375-22.035156 0-43.214844 5.457031-62.195312 15.875v-118.136719c0-27.0625-22.019532-49.078125-49.082032-49.078125h-220.796875c-27.066406 0-49.082031 22.019531-49.082031 49.078125v140.6875c0 27.0625 22.019531 49.082031 49.082031 49.082031h87.5625l70.066407 55.019532c1.804687 1.417968 3.984374 2.132812 6.175781 2.132812 1.886719 0 3.78125-.53125 5.441406-1.609375 3.585937-2.324219 5.296875-6.671875 4.257813-10.820313l-11.210938-44.722656h46.910156c-4.730468 13.601563-7.121094 27.835938-7.121094 42.492188v142.492187c0 55.207031 24.804688 88.167969 66.351563 88.167969 60.199219 0 80.175781-42.265625 92.105469-67.511719l.296875-.628906c13.375-28.289063 30.730469-40.414063 47.523437-52.148437 27.226563-19.027344 52.945313-37 53.714844-110.273438.386719-37.34375-11.699219-69.5-34.953125-92.988281zm-277.644531 30.398437c-3.078125 0-5.988282 1.417969-7.882813 3.847656-1.894531 2.425782-2.566406 5.59375-1.816406 8.582032l7.222656 28.8125-49.804687-39.109375c-1.765625-1.382813-3.9375-2.132813-6.179688-2.132813h-91.019531c-16.035156 0-29.078125-13.046875-29.078125-29.082031v-140.6875c0-16.03125 13.042969-29.078125 29.078125-29.078125h220.800781c16.035156 0 29.082032 13.046875 29.082032 29.078125v140.6875c0 16.035156-13.046876 29.082031-29.082032 29.082031zm292.597656 62.378906c-.660156 62.988282-20.304688 76.714844-45.179688 94.097657-17.148437 11.980469-38.496093 26.894531-54.136718 59.976562l-.296875.632813c-11.183594 23.660156-26.496094 56.066406-74.03125 56.066406-40.328125 0-46.347657-42.710938-46.347657-68.167969v-142.492187c0-15.179688 3.035157-29.820313 9.011719-43.589844 21.847657-4.683594 38.335938-23.945312 38.761719-47.066406 18.359375-12.667969 39.769531-19.34375 62.21875-19.34375 32.226562 0 60.933594 11.070312 80.832031 31.179687 19.414063 19.609375 29.5 46.828125 29.167969 78.707031zm0 0"/><path d="m425.832031 264.46875c2.492188 4.929688 8.503907 6.90625 13.433594 4.417969 4.933594-2.492188 6.90625-8.507813 4.417969-13.4375-3.414063-6.753907-7.824219-12.882813-13.101563-18.214844-14.699219-14.851563-35.632812-23.035156-58.953125-23.035156-21.207031 0-42.175781 10.445312-57.53125 28.652343-14.902344 17.664063-21.769531 40.082032-18.367187 59.976563 1.269531 7.398437 8.316406 10.621094 16.484375 14.351563 9.460937 4.316406 20.183594 9.207031 25.691406 21.878906 6.835938 15.734375 3.710938 28.632812-12.390625 51.121094-3.214844 4.488281-2.179687 10.734374 2.308594 13.953124 1.765625 1.261719 3.800781 1.867188 5.8125 1.867188 3.117187 0 6.1875-1.449219 8.140625-4.179688 16.890625-23.585937 25.8125-44.640624 14.46875-70.734374-8.5625-19.710938-24.914063-27.167969-35.726563-32.101563-1.566406-.714844-3.863281-1.761719-5.480469-2.621094-1.234374-13.394531 4-28.351562 14.347657-40.617187 11.546875-13.691406 26.945312-21.546875 42.242187-21.546875 17.9375 0 33.824219 6.074219 44.738282 17.109375 3.808593 3.84375 6.996093 8.273437 9.464843 13.160156zm0 0"/><path d="m437.25 285.519531c-5.523438 0-10 4.480469-10 10 0 21.695313-3.480469 38.574219-20.464844 50.441407-4.527344 3.164062-5.632812 9.398437-2.46875 13.925781 1.941406 2.78125 5.046875 4.273437 8.203125 4.273437 1.980469 0 3.976563-.585937 5.71875-1.804687 25.5625-17.859375 29.011719-43.808594 29.011719-66.835938 0-5.519531-4.476562-10-10-10zm0 0"/><path d="m70.148438 76h185.851562c5.523438 0 10-4.476562 10-10s-4.476562-10-10-10h-185.851562c-5.523438 0-10 4.476562-10 10s4.476562 10 10 10zm0 0"/><path d="m256.003906 112c-2.640625 0-5.210937 1.070312-7.070312 2.929688-1.859375 1.859374-2.929688 4.429687-2.929688 7.070312 0 2.628906 1.070313 5.210938 2.929688 7.070312 1.859375 1.859376 4.429687 2.929688 7.070312 2.929688 2.628906 0 5.210938-1.070312 7.070313-2.929688 1.859375-1.859374 2.929687-4.441406 2.929687-7.070312s-1.070312-5.210938-2.929687-7.070312c-1.859375-1.859376-4.441407-2.929688-7.070313-2.929688zm0 0"/><path d="m70.148438 132h145.851562c5.523438 0 10-4.476562 10-10s-4.476562-10-10-10h-145.851562c-5.523438 0-10 4.476562-10 10s4.476562 10 10 10zm0 0"/><path d="m256 168h-146c-5.523438 0-10 4.476562-10 10s4.476562 10 10 10h146c5.523438 0 10-4.476562 10-10s-4.476562-10-10-10zm0 0"/><path d="m70.839844 168h-.839844c-5.523438 0-10 4.476562-10 10s4.476562 10 10 10h.839844c5.519531 0 10-4.476562 10-10s-4.480469-10-10-10zm0 0"/></svg>