<svg id="Layer_1" data-name="Layer 1" xmlns="http://www.w3.org/2000/svg" viewBox="0 0 1000 1000">
  <defs>
    <style>
      @keyframes hideshow {
        0% { opacity: 0; }
        10% { opacity: .25; }
        15% { opacity: .5; }
        100% { opacity: 1; }
      }
      @keyframes com-top{
        0% {         transform: translate(0px,-100%);
                -ms-transform: translate(0px,-100%); /* IE 9 */
                -webkit-transform: translate(0px,-100%); /* Safari and Chrome */
                -o-transform: translate(0px,-100%); /* Opera */
                -moz-transform: translate(0px,-100%); /* Firefox */}
      }
      @keyframes com-bottom{
        0% {         transform: translate(0px,100%);
                -ms-transform: translate(0px,100%); /* IE 9 */
                -webkit-transform: translate(0px,100%); /* Safari and Chrome */
                -o-transform: translate(0px,100%); /* Opera */
                -moz-transform: translate(0px,100%); /* Firefox */}
      }
      @keyframes com{
        0% {         transform: translate(100%,0px);
                -ms-transform: translate(100%,0px); /* IE 9 */
                -webkit-transform: translate(100%,0px); /* Safari and Chrome */
                -o-transform: translate(100%,0px); /* Opera */
                -moz-transform: translate(100%,0px); /* Firefox */}
      }
      .cls-1 {
        fill: #c93131;
      }
      .motto{
        animation: hideshow 3s ease infinite;
      }
      .t{
      display:none;
      }
      .s{
      display:none;
      }
      .u{
        display:none;
      }
    </style>
  </defs><path
    class="cls-1 s"
    d="M599.29,599.24l3-1.76c1.56,5.48,6.19,9.19,13.69,9.19s11.48-3.91,11.48-9.12c0-5.48-4.83-7.57-11.81-9.79-7.63-2.47-14.47-4.63-14.47-12.58,0-7.5,6.06-12.26,13.82-12.26a15.31,15.31,0,0,1,14.67,9.59l-2.93,1.63A12,12,0,0,0,615,566.25c-6.32,0-10.3,3.71-10.3,8.8,0,5.48,4.63,7.17,11.15,9.32,8.08,2.68,15.13,5.22,15.13,13.11C631,605,625,610,616,610,607.44,610,601.37,605.7,599.29,599.24Z"/>
    <path class="cls-1 s" d="M659,576.25H647.78v33.19H645V576.25H633.79V573.7H659Z"/>
    <path class="cls-1 u" d="M664.12,597.49V573.7h2.71v23.79c0,5.82,3.62,9.91,10.36,9.91s10.42-4.09,10.42-9.91V573.7h2.71v23.79c0,7.56-5.26,12.51-13.13,12.51S664.12,605.05,664.12,597.49Z"/>
    <path
     class="cls-1 u" d="M729,591.57c0,9.85-7,17.87-16.85,17.87H698.69V573.7h13.43C722,573.7,729,581.71,729,591.57Zm-2.66,0c0-8.48-5.77-15.32-14.19-15.32H701.39v30.64h10.73C720.54,606.89,726.31,600,726.31,591.57Z"/>
     <path class="cls-1 s" d="M738.51,573.7v35.74H735.8V573.7Z"/>
     <path class="cls-1 s" d="M745.35,591.57A18.44,18.44,0,1,1,763.78,610,18.34,18.34,0,0,1,745.35,591.57Zm34.16,0a15.73,15.73,0,1,0-15.73,15.83A15.65,15.65,0,0,0,779.51,591.57Z"/>
     <path class="cls-1 t" d="M780.36,391.18h-5.18v15.31h-1.27V391.18h-5.18V390h11.63Z"/>
    <path
      class="cls-1 t" d="M797.86,406.49h-1.25V391.84L790.51,402h-.21l-6.1-10.13v14.65H783V390h1.56l5.89,9.75,5.88-9.75h1.58Z"/>
    <path
    class="cls-1 motto"
    d="M763.7,426.78q-18-19.86-45.09-19.86H444.21q-27.58,0-45.54,19.86a68.62,68.62,0,0,0-6.29,8.12c-7.69-17.25-23.48-27.59-44.31-27.59-18.51,0-30.49,6.78-37.79,17.2-7.3-10.94-18.76-17.2-34.14-17.2-17.46,0-28.92,6.78-34.92,15.64V407H202.14V547.85h39.08V467.77c0-15.37,7.3-24.49,20.33-24.49,12.51,0,18.76,8.33,18.76,21.36v83.21H319.4V467.77c0-15.37,7.3-24.49,20.33-24.49,12.5,0,18.76,8.33,18.76,21.36v83.21h39.09V526.6c.36.43.71.86,1.09,1.27q17.94,19.86,45.54,19.86,27.38,0,45.21-20t17.84-50.54q0-21.56-8.95-37.78h23.81V547.85h41.2l.33-108.43h35.49V547.85h41.2l.33-108.43h23.39q-8.92,16.23-8.95,37.78,0,30.81,17.95,50.67t45.55,19.86q27.36,0,45.2-20t17.84-50.54Q781.65,446.65,763.7,426.78ZM465.54,502.59Q457,512.71,444.2,512.72t-21.56-10.13q-8.73-10.12-8.72-25.38,0-15,8.72-25.14t21.56-10.13q12.82,0,21.34,10.13t8.52,25.14Q474.06,492.47,465.54,502.59Zm274.4,0q-8.52,10.12-21.35,10.13T697,502.59q-8.73-10.12-8.73-25.38,0-15,8.73-25.14t21.55-10.13q12.82,0,21.35,10.13t8.52,25.14Q748.46,492.47,739.94,502.59Z"/></svg>
